<?xml version="1.0" encoding="UTF-8"?>
<svg xmlns="http://www.w3.org/2000/svg" xmlns:xlink="http://www.w3.org/1999/xlink" width="512px" height="512px" viewBox="0 0 512 512" version="1.1">
<g id="surface1">
<path fill="#1B5E20" stroke="none" fill-rule="nonzero" fill-opacity="1" d="M 401.664062 139.089844 C 397.679688 136.414062 395.007812 132.320312 395.007812 126.910156 C 388.238281 55.425781 328.753906 0 255.824219 0 C 182.894531 0 123.488281 55.34375 116.753906 126.910156 C 116.753906 132.335938 114.078125 136.335938 110.078125 139.089844 C 73.585938 164.753906 50.671875 206.59375 50.671875 253.824219 C 50.671875 318.59375 95.167969 372.671875 154.59375 388.847656 C 165.425781 391.585938 174.832031 392.929688 178.929688 390.175781 C 187.007812 386.191406 195.167969 351.089844 191.089844 342.929688 C 188.335938 338.945312 178.929688 334.847656 169.40625 332.175781 C 134.335938 322.769531 108.671875 290.335938 108.671875 252.609375 C 108.671875 230.929688 116.753906 212.03125 130.320312 197.105469 C 135.648438 190.367188 143.742188 185.023438 150.59375 180.929688 C 165.425781 172.863281 174.832031 156.609375 174.832031 139.023438 C 174.832031 129.425781 176.257812 121.425781 178.929688 113.425781 C 189.679688 80.769531 220.769531 56.671875 257.183594 56.671875 C 293.679688 56.671875 324.769531 80.753906 335.519531 113.425781 C 338.257812 121.425781 339.601562 129.425781 339.601562 139.023438 C 339.601562 156.351562 347.679688 172.6875 363.9375 180.6875 C 372.015625 184.511719 378.769531 190.015625 384.097656 196.769531 C 397.679688 211.425781 405.777344 230.351562 405.777344 252.175781 C 405.777344 298.015625 369.28125 334.527344 323.425781 334.527344 C 270.753906 334.527344 228.847656 377.519531 228.847656 428.785156 L 228.847656 482.609375 C 228.847656 493.183594 230.257812 504.03125 232.929688 506.945312 C 239.664062 513.679688 274.769531 513.679688 281.503906 506.945312 C 284.433594 504.015625 285.679688 493.519531 285.679688 482.609375 L 285.679688 427.441406 C 285.679688 407.28125 302 390.945312 322.238281 390.945312 C 399.167969 390.945312 461.328125 328.785156 461.328125 251.871094 C 461.328125 205.710938 438.59375 164.046875 402 138.449219 Z M 401.664062 139.089844 "/>
</g>
</svg>
